STARTFONT 2.1
FONT -B&H-Lucida Sans-Medium-R-Normal-Sans-17-170-72-72-P-97-ISO8859-1
SIZE 17 72 72
FONTBOUNDINGBOX 21 19 -4 -3

STARTPROPERTIES 22
FONTNAME_REGISTRY "-"
FOUNDRY "B&H"
FAMILY_NAME "Lucida Sans"
WEIGHT_NAME "Medium"
SLANT "R"
SETWIDTH_NAME "Normal"
ADD_STYLE_NAME "Sans"
SPACING "P"
CHARSET_REGISTRY "ISO8859"
CHARSET_ENCODING "1"
PIXEL_SIZE 17
POINT_SIZE 170
RESOLUTION_X 72
RESOLUTION_Y 72
AVERAGE_WIDTH 97
FULL_NAME "LucidaSans"
WEIGHT 10
X_HEIGHT 9
QUAD_WIDTH 10
DEFAULT_CHAR 32
FONT_DESCENT 4
FONT_ASCENT 16
ENDPROPERTIES

CHARS 190

STARTCHAR space
ENCODING 32
SWIDTH 316 0
DWIDTH 5 0
BBX 1 1 0 0
BITMAP
00
ENDCHAR

STARTCHAR exclam
ENCODING 33
SWIDTH 316 0
DWIDTH 5 0
BBX 2 12 2 0
BITMAP
C0
C0
C0
C0
C0
80
80
80
80
00
C0
C0
ENDCHAR

STARTCHAR quotedbl
ENCODING 34
SWIDTH 373 0
DWIDTH 6 0
BBX 5 4 1 8
BITMAP
D8
D8
90
90
ENDCHAR

STARTCHAR numbersign
ENCODING 35
SWIDTH 633 0
DWIDTH 11 0
BBX 10 12 0 0
BITMAP
0C80
0900
0900
7FC0
1100
1200
1200
FFC0
2200
2400
2400
2400
ENDCHAR

STARTCHAR dollar
ENCODING 36
SWIDTH 633 0
DWIDTH 11 0
BBX 7 14 2 -1
BITMAP
10
7E
D2
90
90
D0
70
1C
16
12
12
94
F8
10
ENDCHAR

STARTCHAR percent
ENCODING 37
SWIDTH 669 0
DWIDTH 11 0
BBX 11 12 0 0
BITMAP
7060
88C0
8880
8900
8A00
7600
0DC0
0A20
1220
2220
6220
C1C0
ENDCHAR

STARTCHAR ampersand
ENCODING 38
SWIDTH 697 0
DWIDTH 12 0
BBX 11 12 0 0
BITMAP
1E00
3300
3300
3200
1C00
6860
C460
C660
C3C0
C3C0
6180
3EE0
ENDCHAR

STARTCHAR quoteright
ENCODING 39
SWIDTH 316 0
DWIDTH 5 0
BBX 2 4 2 8
BITMAP
C0
C0
40
80
ENDCHAR

STARTCHAR parenleft
ENCODING 40
SWIDTH 325 0
DWIDTH 6 0
BBX 4 14 1 -2
BITMAP
10
30
60
40
C0
C0
C0
C0
C0
C0
40
60
30
10
ENDCHAR

STARTCHAR parenright
ENCODING 41
SWIDTH 325 0
DWIDTH 6 0
BBX 4 14 1 -2
BITMAP
80
C0
60
20
30
30
30
30
30
30
20
60
C0
80
ENDCHAR

STARTCHAR asterisk
ENCODING 42
SWIDTH 482 0
DWIDTH 8 0
BBX 6 6 1 6
BITMAP
10
94
EC
30
68
4C
ENDCHAR

STARTCHAR plus
ENCODING 43
SWIDTH 633 0
DWIDTH 11 0
BBX 9 9 1 0
BITMAP
0800
0800
0800
0800
FF80
0800
0800
0800
0800
ENDCHAR

STARTCHAR comma
ENCODING 44
SWIDTH 316 0
DWIDTH 5 0
BBX 2 4 2 -2
BITMAP
C0
C0
40
80
ENDCHAR

STARTCHAR minus
ENCODING 45
SWIDTH 633 0
DWIDTH 11 0
BBX 10 1 0 4
BITMAP
FFC0
ENDCHAR

STARTCHAR period
ENCODING 46
SWIDTH 316 0
DWIDTH 5 0
BBX 2 2 2 0
BITMAP
C0
C0
ENDCHAR

STARTCHAR slash
ENCODING 47
SWIDTH 494 0
DWIDTH 8 0
BBX 8 14 0 -2
BITMAP
01
02
02
04
04
08
08
10
10
20
20
40
40
80
ENDCHAR

STARTCHAR zero
ENCODING 48
SWIDTH 633 0
DWIDTH 11 0
BBX 9 12 1 0
BITMAP
1C00
6300
6300
C180
C180
C180
C180
C180
C180
6300
6300
1C00
ENDCHAR

STARTCHAR one
ENCODING 49
SWIDTH 633 0
DWIDTH 11 0
BBX 4 12 2 0
BITMAP
F0
30
30
30
30
30
30
30
30
30
30
30
ENDCHAR

STARTCHAR two
ENCODING 50
SWIDTH 633 0
DWIDTH 11 0
BBX 7 12 2 0
BITMAP
F8
8C
06
06
06
0C
08
10
20
40
C0
FE
ENDCHAR

STARTCHAR three
ENCODING 51
SWIDTH 633 0
DWIDTH 11 0
BBX 7 12 2 0
BITMAP
FC
8E
06
06
0C
70
0C
06
06
06
8C
F8
ENDCHAR

STARTCHAR four
ENCODING 52
SWIDTH 633 0
DWIDTH 11 0
BBX 10 12 0 0
BITMAP
0300
0300
0500
0900
1100
3100
2100
4100
FFC0
0300
0300
0300
ENDCHAR

STARTCHAR five
ENCODING 53
SWIDTH 633 0
DWIDTH 11 0
BBX 6 12 2 0
BITMAP
FC
80
80
80
80
F0
18
0C
0C
0C
18
F0
ENDCHAR

STARTCHAR six
ENCODING 54
SWIDTH 633 0
DWIDTH 11 0
BBX 9 12 1 0
BITMAP
1F00
7100
6000
C000
C000
DE00
E300
C180
C180
4180
6300
3E00
ENDCHAR

STARTCHAR seven
ENCODING 55
SWIDTH 633 0
DWIDTH 11 0
BBX 8 12 2 0
BITMAP
FF
FF
02
06
04
0C
08
18
30
30
60
60
ENDCHAR

STARTCHAR eight
ENCODING 56
SWIDTH 633 0
DWIDTH 11 0
BBX 9 12 1 0
BITMAP
3E00
6300
4100
4100
3200
1C00
6F00
C380
C180
C180
6300
3E00
ENDCHAR

STARTCHAR nine
ENCODING 57
SWIDTH 633 0
DWIDTH 11 0
BBX 9 12 1 0
BITMAP
3E00
6300
C100
C180
C180
C180
6380
3D80
0180
0300
4200
7C00
ENDCHAR

STARTCHAR colon
ENCODING 58
SWIDTH 316 0
DWIDTH 5 0
BBX 2 9 2 0
BITMAP
C0
C0
00
00
00
00
00
C0
C0
ENDCHAR

STARTCHAR semicolon
ENCODING 59
SWIDTH 316 0
DWIDTH 5 0
BBX 2 11 2 -2
BITMAP
C0
C0
00
00
00
00
00
C0
C0
40
80
ENDCHAR

STARTCHAR less
ENCODING 60
SWIDTH 633 0
DWIDTH 11 0
BBX 10 9 0 0
BITMAP
0040
0180
0600
3800
E000
3800
0600
0180
0040
ENDCHAR

STARTCHAR equal
ENCODING 61
SWIDTH 633 0
DWIDTH 11 0
BBX 10 4 0 3
BITMAP
FFC0
0000
0000
FFC0
ENDCHAR

STARTCHAR greater
ENCODING 62
SWIDTH 633 0
DWIDTH 11 0
BBX 10 9 0 0
BITMAP
8000
6000
1800
0700
01C0
0700
1800
6000
8000
ENDCHAR

STARTCHAR question
ENCODING 63
SWIDTH 422 0
DWIDTH 7 0
BBX 7 12 0 0
BITMAP
FC
8E
06
06
0C
08
10
30
30
00
30
30
ENDCHAR

STARTCHAR at
ENCODING 64
SWIDTH 858 0
DWIDTH 15 0
BBX 13 12 1 0
BITMAP
07C0
1820
2010
43C8
4C48
88C8
9188
9398
9290
5CE0
6100
1E00
ENDCHAR

STARTCHAR A
ENCODING 65
SWIDTH 690 0
DWIDTH 12 0
BBX 11 12 0 0
BITMAP
0600
0E00
0B00
0B00
1B00
1180
3180
31C0
3FC0
60C0
4060
C060
ENDCHAR

STARTCHAR B
ENCODING 66
SWIDTH 575 0
DWIDTH 10 0
BBX 8 12 1 0
BITMAP
FC
C7
C3
C3
C6
FC
C6
C3
C3
C3
C7
FC
ENDCHAR

STARTCHAR C
ENCODING 67
SWIDTH 692 0
DWIDTH 12 0
BBX 10 12 1 0
BITMAP
1FC0
3040
6000
C000
C000
C000
C000
C000
C000
6000
3040
1F80
ENDCHAR

STARTCHAR D
ENCODING 68
SWIDTH 749 0
DWIDTH 13 0
BBX 11 12 1 0
BITMAP
FF00
C180
C0C0
C060
C060
C060
C060
C060
C040
C0C0
C180
FE00
ENDCHAR

STARTCHAR E
ENCODING 69
SWIDTH 542 0
DWIDTH 9 0
BBX 7 12 2 0
BITMAP
FE
C0
C0
C0
C0
FC
C0
C0
C0
C0
C0
FE
ENDCHAR

STARTCHAR F
ENCODING 70
SWIDTH 536 0
DWIDTH 9 0
BBX 7 12 2 0
BITMAP
FE
C0
C0
C0
C0
FC
C0
C0
C0
C0
C0
C0
ENDCHAR

STARTCHAR G
ENCODING 71
SWIDTH 723 0
DWIDTH 12 0
BBX 10 12 1 0
BITMAP
1FC0
3040
6000
C000
C000
C000
C000
C0C0
C0C0
60C0
30C0
1FC0
ENDCHAR

STARTCHAR H
ENCODING 72
SWIDTH 735 0
DWIDTH 12 0
BBX 10 12 1 0
BITMAP
C0C0
C0C0
C0C0
C0C0
C0C0
FFC0
C0C0
C0C0
C0C0
C0C0
C0C0
C0C0
ENDCHAR

STARTCHAR I
ENCODING 73
SWIDTH 288 0
DWIDTH 5 0
BBX 2 12 1 0
BITMAP
C0
C0
C0
C0
C0
C0
C0
C0
C0
C0
C0
C0
ENDCHAR

STARTCHAR J
ENCODING 74
SWIDTH 311 0
DWIDTH 5 0
BBX 6 14 -1 -2
BITMAP
0C
0C
0C
0C
0C
0C
0C
0C
0C
0C
0C
0C
18
F0
ENDCHAR

STARTCHAR K
ENCODING 75
SWIDTH 653 0
DWIDTH 11 0
BBX 10 12 1 0
BITMAP
C180
C300
C600
CC00
D800
D000
F800
DC00
CE00
C700
C380
C1C0
ENDCHAR

STARTCHAR L
ENCODING 76
SWIDTH 533 0
DWIDTH 9 0
BBX 8 12 1 0
BITMAP
C0
C0
C0
C0
C0
C0
C0
C0
C0
C0
C0
FF
ENDCHAR

STARTCHAR M
ENCODING 77
SWIDTH 861 0
DWIDTH 15 0
BBX 11 12 2 0
BITMAP
C060
E0E0
E0E0
A1E0
B160
B160
9A60
9A60
9A60
8C60
8C60
8060
ENDCHAR

STARTCHAR N
ENCODING 78
SWIDTH 739 0
DWIDTH 13 0
BBX 9 12 2 0
BITMAP
C080
E080
E080
B080
B880
9880
8C80
8E80
8680
8380
8380
8180
ENDCHAR

STARTCHAR O
ENCODING 79
SWIDTH 777 0
DWIDTH 13 0
BBX 12 12 1 0
BITMAP
1F80
30C0
6060
C030
C030
C030
C030
C030
C030
6060
30C0
1F80
ENDCHAR

STARTCHAR P
ENCODING 80
SWIDTH 553 0
DWIDTH 9 0
BBX 8 12 1 0
BITMAP
FE
C7
C3
C3
C3
C6
FC
C0
C0
C0
C0
C0
ENDCHAR

STARTCHAR Q
ENCODING 81
SWIDTH 777 0
DWIDTH 13 0
BBX 13 14 1 -2
BITMAP
1F80
30C0
6060
C020
C030
C030
C030
C030
C030
6060
30E0
1FC0
00C0
0038
ENDCHAR

STARTCHAR R
ENCODING 82
SWIDTH 633 0
DWIDTH 11 0
BBX 10 12 1 0
BITMAP
FE00
C700
C300
C300
C300
C600
FC00
CE00
C600
C300
C180
C1C0
ENDCHAR

STARTCHAR S
ENCODING 83
SWIDTH 539 0
DWIDTH 9 0
BBX 8 12 1 0
BITMAP
3E
E2
C0
C0
F0
7C
1E
07
03
03
86
FC
ENDCHAR

STARTCHAR T
ENCODING 84
SWIDTH 633 0
DWIDTH 11 0
BBX 10 12 0 0
BITMAP
FFC0
0C00
0C00
0C00
0C00
0C00
0C00
0C00
0C00
0C00
0C00
0C00
ENDCHAR

STARTCHAR U
ENCODING 85
SWIDTH 693 0
DWIDTH 12 0
BBX 9 12 1 0
BITMAP
C180
C180
C180
C180
C180
C180
C180
C180
C180
C180
6300
3E00
ENDCHAR

STARTCHAR V
ENCODING 86
SWIDTH 654 0
DWIDTH 11 0
BBX 11 12 0 0
BITMAP
C060
C040
60C0
6080
3080
3180
3100
1900
1B00
0A00
0E00
0C00
ENDCHAR

STARTCHAR W
ENCODING 87
SWIDTH 855 0
DWIDTH 15 0
BBX 14 12 0 0
BITMAP
C104
C384
438C
6388
6288
64C8
34D8
34D0
34D0
3870
1860
1860
ENDCHAR

STARTCHAR X
ENCODING 88
SWIDTH 626 0
DWIDTH 11 0
BBX 10 12 0 0
BITMAP
E0C0
6180
3100
3B00
1A00
0C00
0E00
1600
3300
2380
6180
C0C0
ENDCHAR

STARTCHAR Y
ENCODING 89
SWIDTH 623 0
DWIDTH 11 0
BBX 10 12 0 0
BITMAP
C0C0
6080
6180
3100
3200
1E00
1C00
0C00
0C00
0C00
0C00
0C00
ENDCHAR

STARTCHAR Z
ENCODING 90
SWIDTH 605 0
DWIDTH 10 0
BBX 8 12 1 0
BITMAP
FF
03
06
0E
0C
18
18
30
70
60
C0
FF
ENDCHAR

STARTCHAR bracketleft
ENCODING 91
SWIDTH 325 0
DWIDTH 6 0
BBX 3 14 2 -2
BITMAP
E0
80
80
80
80
80
80
80
80
80
80
80
80
E0
ENDCHAR

STARTCHAR backslash
ENCODING 92
SWIDTH 494 0
DWIDTH 8 0
BBX 8 14 0 -2
BITMAP
80
40
40
20
20
10
10
08
08
04
04
02
02
01
ENDCHAR

STARTCHAR bracketright
ENCODING 93
SWIDTH 325 0
DWIDTH 6 0
BBX 3 14 1 -2
BITMAP
E0
20
20
20
20
20
20
20
20
20
20
20
20
E0
ENDCHAR

STARTCHAR asciicircum
ENCODING 94
SWIDTH 633 0
DWIDTH 11 0
BBX 10 10 0 2
BITMAP
0400
0C00
0C00
1E00
1200
3300
2100
6180
4080
C0C0
ENDCHAR

STARTCHAR underscore
ENCODING 95
SWIDTH 500 0
DWIDTH 9 0
BBX 7 1 1 -1
BITMAP
FE
ENDCHAR

STARTCHAR quoteleft
ENCODING 96
SWIDTH 316 0
DWIDTH 5 0
BBX 2 4 2 8
BITMAP
40
80
C0
C0
ENDCHAR

STARTCHAR a
ENCODING 97
SWIDTH 552 0
DWIDTH 9 0
BBX 8 9 1 0
BITMAP
7C
46
06
06
3E
E6
C6
C6
7B
ENDCHAR

STARTCHAR b
ENCODING 98
SWIDTH 630 0
DWIDTH 11 0
BBX 8 12 2 0
BITMAP
C0
C0
C0
DC
E6
C3
C3
C3
C3
C3
E6
DC
ENDCHAR

STARTCHAR c
ENCODING 99
SWIDTH 512 0
DWIDTH 9 0
BBX 7 9 1 0
BITMAP
3E
60
C0
C0
C0
C0
C0
62
3E
ENDCHAR

STARTCHAR d
ENCODING 100
SWIDTH 630 0
DWIDTH 11 0
BBX 8 12 1 0
BITMAP
03
03
03
3B
67
C3
C3
C3
C3
C3
67
3B
ENDCHAR

STARTCHAR e
ENCODING 101
SWIDTH 557 0
DWIDTH 9 0
BBX 8 9 1 0
BITMAP
3C
66
C3
C3
FF
C0
C0
61
1F
ENDCHAR

STARTCHAR f
ENCODING 102
SWIDTH 367 0
DWIDTH 6 0
BBX 6 13 1 0
BITMAP
3C
60
60
60
F8
60
60
60
60
60
60
60
60
ENDCHAR

STARTCHAR g
ENCODING 103
SWIDTH 623 0
DWIDTH 11 0
BBX 8 12 1 -3
BITMAP
3B
67
C3
C3
C3
C3
C3
67
3B
03
46
7C
ENDCHAR

STARTCHAR h
ENCODING 104
SWIDTH 620 0
DWIDTH 11 0
BBX 8 12 1 0
BITMAP
C0
C0
C0
DE
E3
C3
C3
C3
C3
C3
C3
C3
ENDCHAR

STARTCHAR i
ENCODING 105
SWIDTH 289 0
DWIDTH 5 0
BBX 2 12 1 0
BITMAP
C0
C0
00
C0
C0
C0
C0
C0
C0
C0
C0
C0
ENDCHAR

STARTCHAR j
ENCODING 106
SWIDTH 304 0
DWIDTH 5 0
BBX 5 15 0 -3
BITMAP
18
18
00
18
18
18
18
18
18
18
18
18
18
18
F0
ENDCHAR

STARTCHAR k
ENCODING 107
SWIDTH 584 0
DWIDTH 10 0
BBX 9 12 1 0
BITMAP
C000
C000
C000
C300
C400
C800
D000
F000
D800
CC00
C700
C380
ENDCHAR

STARTCHAR l
ENCODING 108
SWIDTH 289 0
DWIDTH 5 0
BBX 2 12 1 0
BITMAP
C0
C0
C0
C0
C0
C0
C0
C0
C0
C0
C0
C0
ENDCHAR

STARTCHAR m
ENCODING 109
SWIDTH 934 0
DWIDTH 16 0
BBX 14 9 1 0
BITMAP
DE78
E38C
C30C
C30C
C30C
C30C
C30C
C30C
C30C
ENDCHAR

STARTCHAR n
ENCODING 110
SWIDTH 620 0
DWIDTH 11 0
BBX 8 9 1 0
BITMAP
DE
E3
C3
C3
C3
C3
C3
C3
C3
ENDCHAR

STARTCHAR o
ENCODING 111
SWIDTH 614 0
DWIDTH 10 0
BBX 9 9 1 0
BITMAP
3E00
6300
C180
C180
C180
C180
C180
6300
3E00
ENDCHAR

STARTCHAR p
ENCODING 112
SWIDTH 630 0
DWIDTH 11 0
BBX 8 12 2 -3
BITMAP
DC
E6
C3
C3
C3
C3
C3
E6
DC
C0
C0
C0
ENDCHAR

STARTCHAR q
ENCODING 113
SWIDTH 630 0
DWIDTH 11 0
BBX 8 12 1 -3
BITMAP
3B
67
C3
C3
C3
C3
C3
67
3B
03
03
03
ENDCHAR

STARTCHAR r
ENCODING 114
SWIDTH 409 0
DWIDTH 7 0
BBX 5 9 2 0
BITMAP
D8
E0
C0
C0
C0
C0
C0
C0
C0
ENDCHAR

STARTCHAR s
ENCODING 115
SWIDTH 510 0
DWIDTH 9 0
BBX 7 9 1 0
BITMAP
7C
C0
C0
F0
3C
0E
06
86
FC
ENDCHAR

STARTCHAR t
ENCODING 116
SWIDTH 374 0
DWIDTH 6 0
BBX 5 11 1 0
BITMAP
60
60
F8
60
60
60
60
60
60
60
38
ENDCHAR

STARTCHAR u
ENCODING 117
SWIDTH 620 0
DWIDTH 11 0
BBX 8 9 1 0
BITMAP
C3
C3
C3
C3
C3
C3
C3
C7
7B
ENDCHAR

STARTCHAR v
ENCODING 118
SWIDTH 518 0
DWIDTH 9 0
BBX 8 9 0 0
BITMAP
C1
41
62
62
26
34
34
18
18
ENDCHAR

STARTCHAR w
ENCODING 119
SWIDTH 770 0
DWIDTH 13 0
BBX 13 9 0 0
BITMAP
C218
C710
4510
6530
6D20
29A0
28A0
38C0
30C0
ENDCHAR

STARTCHAR x
ENCODING 120
SWIDTH 613 0
DWIDTH 10 0
BBX 9 9 1 0
BITMAP
C100
6200
3600
1C00
1C00
1400
2600
6300
C180
ENDCHAR

STARTCHAR y
ENCODING 121
SWIDTH 522 0
DWIDTH 9 0
BBX 9 12 0 -3
BITMAP
C180
C300
6300
6200
3600
3400
3C00
1800
1800
1800
1000
3000
ENDCHAR

STARTCHAR z
ENCODING 122
SWIDTH 573 0
DWIDTH 10 0
BBX 7 9 1 0
BITMAP
FE
06
0C
18
10
30
60
C0
FE
ENDCHAR

STARTCHAR braceleft
ENCODING 123
SWIDTH 325 0
DWIDTH 6 0
BBX 4 14 0 -2
BITMAP
30
40
40
40
40
40
80
40
40
40
40
40
40
30
ENDCHAR

STARTCHAR bar
ENCODING 124
SWIDTH 265 0
DWIDTH 5 0
BBX 1 14 2 -2
BITMAP
80
80
80
80
80
80
80
80
80
80
80
80
80
80
ENDCHAR

STARTCHAR braceright
ENCODING 125
SWIDTH 325 0
DWIDTH 6 0
BBX 4 14 1 -2
BITMAP
C0
20
20
20
20
20
10
20
20
20
20
20
20
C0
ENDCHAR

STARTCHAR asciitilde
ENCODING 126
SWIDTH 633 0
DWIDTH 11 0
BBX 10 3 0 3
BITMAP
0040
7840
8780
ENDCHAR

STARTCHAR exclamdown
ENCODING 161
SWIDTH 316 0
DWIDTH 5 0
BBX 2 12 2 -3
BITMAP
C0
C0
00
80
80
80
80
80
C0
C0
C0
C0
ENDCHAR

STARTCHAR cent
ENCODING 162
SWIDTH 633 0
DWIDTH 11 0
BBX 7 12 2 0
BITMAP
08
08
3E
6A
C8
C8
C8
C8
48
6A
1E
08
ENDCHAR

STARTCHAR sterling
ENCODING 163
SWIDTH 633 0
DWIDTH 11 0
BBX 8 12 2 0
BITMAP
0F
30
30
30
30
7C
30
30
30
30
E0
FF
ENDCHAR

STARTCHAR currency
ENCODING 164
SWIDTH 633 0
DWIDTH 11 0
BBX 9 9 1 2
BITMAP
8080
5D00
2200
4100
4100
4100
2200
5D00
8080
ENDCHAR

STARTCHAR yen
ENCODING 165
SWIDTH 633 0
DWIDTH 11 0
BBX 10 12 0 0
BITMAP
C0C0
6080
3100
3200
1A00
0C00
3F00
0C00
3F00
0C00
0C00
0C00
ENDCHAR

STARTCHAR brokenbar
ENCODING 166
SWIDTH 265 0
DWIDTH 5 0
BBX 1 14 2 -2
BITMAP
80
80
80
80
80
00
00
00
80
80
80
80
80
80
ENDCHAR

STARTCHAR section
ENCODING 167
SWIDTH 633 0
DWIDTH 11 0
BBX 7 15 2 -3
BITMAP
3E
C0
80
C0
F0
BC
86
82
C2
72
1C
06
02
86
7C
ENDCHAR

STARTCHAR dieresis
ENCODING 168
SWIDTH 614 0
DWIDTH 10 0
BBX 4 1 3 11
BITMAP
90
ENDCHAR

STARTCHAR copyright
ENCODING 169
SWIDTH 855 0
DWIDTH 15 0
BBX 13 12 1 0
BITMAP
0F80
3060
6030
4F10
9808
9008
9008
9008
5810
6F30
3060
0F80
ENDCHAR

STARTCHAR ordfeminine
ENCODING 170
SWIDTH 422 0
DWIDTH 7 0
BBX 6 7 1 5
BITMAP
F0
88
78
C8
88
98
6C
ENDCHAR

STARTCHAR guillemotleft
ENCODING 171
SWIDTH 524 0
DWIDTH 9 0
BBX 8 7 1 1
BITMAP
11
22
44
CC
66
22
11
ENDCHAR

STARTCHAR logicalnot
ENCODING 172
SWIDTH 633 0
DWIDTH 11 0
BBX 10 4 0 3
BITMAP
FFC0
0040
0040
0040
ENDCHAR

STARTCHAR hyphen
ENCODING 173
SWIDTH 325 0
DWIDTH 6 0
BBX 4 1 1 4
BITMAP
F0
ENDCHAR

STARTCHAR registered
ENCODING 174
SWIDTH 633 0
DWIDTH 11 0
BBX 7 7 2 5
BITMAP
38
44
BA
BA
B2
6C
38
ENDCHAR

STARTCHAR macron
ENCODING 175
SWIDTH 614 0
DWIDTH 10 0
BBX 5 1 3 11
BITMAP
F8
ENDCHAR

STARTCHAR degree
ENCODING 176
SWIDTH 277 0
DWIDTH 5 0
BBX 3 4 1 8
BITMAP
40
A0
A0
40
ENDCHAR

STARTCHAR plusminus
ENCODING 177
SWIDTH 633 0
DWIDTH 11 0
BBX 9 9 1 0
BITMAP
0800
0800
0800
FF80
0800
0800
0800
0000
FF80
ENDCHAR

STARTCHAR twosuperior
ENCODING 178
SWIDTH 379 0
DWIDTH 6 0
BBX 4 7 2 5
BITMAP
E0
90
10
30
40
80
F0
ENDCHAR

STARTCHAR threesuperior
ENCODING 179
SWIDTH 379 0
DWIDTH 6 0
BBX 4 7 2 5
BITMAP
F0
10
30
60
10
10
E0
ENDCHAR

STARTCHAR acute
ENCODING 180
SWIDTH 614 0
DWIDTH 10 0
BBX 4 2 4 10
BITMAP
30
C0
ENDCHAR

STARTCHAR mu
ENCODING 181
SWIDTH 626 0
DWIDTH 11 0
BBX 8 12 1 -3
BITMAP
C3
C3
C3
C3
C3
C3
C7
FF
FB
C0
C0
C0
ENDCHAR

STARTCHAR paragraph
ENCODING 182
SWIDTH 633 0
DWIDTH 11 0
BBX 6 14 2 -2
BITMAP
7C
F4
F4
F4
F4
74
14
14
14
14
14
14
14
14
ENDCHAR

STARTCHAR periodcentered
ENCODING 183
SWIDTH 633 0
DWIDTH 11 0
BBX 2 2 4 4
BITMAP
C0
C0
ENDCHAR

STARTCHAR cedilla
ENCODING 184
SWIDTH 614 0
DWIDTH 10 0
BBX 3 3 4 -3
BITMAP
80
60
60
ENDCHAR

STARTCHAR onesuperior
ENCODING 185
SWIDTH 379 0
DWIDTH 6 0
BBX 2 7 3 5
BITMAP
C0
40
40
40
40
40
40
ENDCHAR

STARTCHAR ordmasculine
ENCODING 186
SWIDTH 422 0
DWIDTH 7 0
BBX 6 7 1 5
BITMAP
78
CC
84
84
84
CC
78
ENDCHAR

STARTCHAR guillemotright
ENCODING 187
SWIDTH 524 0
DWIDTH 9 0
BBX 8 7 0 1
BITMAP
88
44
66
33
22
44
88
ENDCHAR

STARTCHAR onequarter
ENCODING 188
SWIDTH 795 0
DWIDTH 14 0
BBX 12 12 2 0
BITMAP
6040
2080
2180
2100
2200
2420
2C60
08A0
11A0
21F0
6020
C020
ENDCHAR

STARTCHAR onehalf
ENCODING 189
SWIDTH 795 0
DWIDTH 14 0
BBX 11 12 2 0
BITMAP
6040
2080
2180
2100
2200
25C0
2D20
0820
1060
2080
6100
C1E0
ENDCHAR

STARTCHAR threequarters
ENCODING 190
SWIDTH 795 0
DWIDTH 14 0
BBX 12 12 2 0
BITMAP
F040
1080
3180
6100
1200
1420
EC60
08A0
11A0
21F0
6020
C020
ENDCHAR

STARTCHAR questiondown
ENCODING 191
SWIDTH 422 0
DWIDTH 7 0
BBX 7 12 0 -3
BITMAP
18
18
00
18
18
10
20
60
C0
C0
E2
7E
ENDCHAR

STARTCHAR Agrave
ENCODING 192
SWIDTH 690 0
DWIDTH 12 0
BBX 11 15 0 0
BITMAP
1800
0600
0000
0600
0E00
0B00
0B00
1B00
1180
3180
31C0
3FC0
60C0
4060
C060
ENDCHAR

STARTCHAR Aacute
ENCODING 193
SWIDTH 690 0
DWIDTH 12 0
BBX 11 15 0 0
BITMAP
0300
0C00
0000
0600
0E00
0B00
0B00
1B00
1180
3180
31C0
3FC0
60C0
4060
C060
ENDCHAR

STARTCHAR Acircumflex
ENCODING 194
SWIDTH 690 0
DWIDTH 12 0
BBX 11 16 0 0
BITMAP
0600
0900
1980
0000
0600
0E00
0B00
0B00
1B00
1180
3180
31C0
3FC0
60C0
4060
C060
ENDCHAR

STARTCHAR Atilde
ENCODING 195
SWIDTH 690 0
DWIDTH 12 0
BBX 11 15 0 0
BITMAP
1D00
1700
0000
0600
0E00
0B00
0B00
1B00
1180
3180
31C0
3FC0
60C0
4060
C060
ENDCHAR

STARTCHAR Adieresis
ENCODING 196
SWIDTH 690 0
DWIDTH 12 0
BBX 11 14 0 0
BITMAP
0900
0000
0600
0E00
0B00
0B00
1B00
1180
3180
31C0
3FC0
60C0
4060
C060
ENDCHAR

STARTCHAR Aring
ENCODING 197
SWIDTH 690 0
DWIDTH 12 0
BBX 11 16 0 0
BITMAP
0E00
0A00
0E00
0000
0600
0E00
0B00
0B00
1B00
1180
3180
31C0
3FC0
60C0
4060
C060
ENDCHAR

STARTCHAR AE
ENCODING 198
SWIDTH 907 0
DWIDTH 15 0
BBX 14 12 1 0
BITMAP
01FC
0380
0780
0580
0D80
09F8
1180
3F80
2180
6180
4180
C1FC
ENDCHAR

STARTCHAR Ccedilla
ENCODING 199
SWIDTH 692 0
DWIDTH 12 0
BBX 10 15 1 -3
BITMAP
1FC0
3040
6000
C000
C000
C000
C000
C000
C000
6000
3040
1F80
1000
0C00
0C00
ENDCHAR

STARTCHAR Egrave
ENCODING 200
SWIDTH 542 0
DWIDTH 9 0
BBX 7 15 2 0
BITMAP
60
18
00
FE
C0
C0
C0
C0
FC
C0
C0
C0
C0
C0
FE
ENDCHAR

STARTCHAR Eacute
ENCODING 201
SWIDTH 542 0
DWIDTH 9 0
BBX 7 15 2 0
BITMAP
18
60
00
FE
C0
C0
C0
C0
FC
C0
C0
C0
C0
C0
FE
ENDCHAR

STARTCHAR Ecircumflex
ENCODING 202
SWIDTH 542 0
DWIDTH 9 0
BBX 7 16 2 0
BITMAP
30
48
CC
00
FE
C0
C0
C0
C0
FC
C0
C0
C0
C0
C0
FE
ENDCHAR

STARTCHAR Edieresis
ENCODING 203
SWIDTH 542 0
DWIDTH 9 0
BBX 7 14 2 0
BITMAP
48
00
FE
C0
C0
C0
C0
FC
C0
C0
C0
C0
C0
FE
ENDCHAR

STARTCHAR Igrave
ENCODING 204
SWIDTH 288 0
DWIDTH 5 0
BBX 4 15 0 0
BITMAP
C0
30
00
60
60
60
60
60
60
60
60
60
60
60
60
ENDCHAR

STARTCHAR Iacute
ENCODING 205
SWIDTH 288 0
DWIDTH 5 0
BBX 4 15 0 0
BITMAP
30
C0
00
60
60
60
60
60
60
60
60
60
60
60
60
ENDCHAR

STARTCHAR Icircumflex
ENCODING 206
SWIDTH 288 0
DWIDTH 5 0
BBX 6 16 -1 0
BITMAP
30
48
CC
00
30
30
30
30
30
30
30
30
30
30
30
30
ENDCHAR

STARTCHAR Idieresis
ENCODING 207
SWIDTH 288 0
DWIDTH 5 0
BBX 4 14 0 0
BITMAP
90
00
60
60
60
60
60
60
60
60
60
60
60
60
ENDCHAR

STARTCHAR Eth
ENCODING 208
SWIDTH 749 0
DWIDTH 13 0
BBX 13 12 0 0
BITMAP
3FC0
3060
3030
3018
3018
FE18
3018
3018
3010
3030
3060
3F80
ENDCHAR

STARTCHAR Ntilde
ENCODING 209
SWIDTH 739 0
DWIDTH 13 0
BBX 9 15 2 0
BITMAP
3A00
2E00
0000
C080
E080
E080
B080
B880
9880
8C80
8E80
8680
8380
8380
8180
ENDCHAR

STARTCHAR Ograve
ENCODING 210
SWIDTH 777 0
DWIDTH 13 0
BBX 12 15 1 0
BITMAP
0C00
0300
0000
1F80
30C0
6060
C030
C030
C030
C030
C030
C030
6060
30C0
1F80
ENDCHAR

STARTCHAR Oacute
ENCODING 211
SWIDTH 777 0
DWIDTH 13 0
BBX 12 15 1 0
BITMAP
0300
0C00
0000
1F80
30C0
6060
C030
C030
C030
C030
C030
C030
6060
30C0
1F80
ENDCHAR

STARTCHAR Ocircumflex
ENCODING 212
SWIDTH 777 0
DWIDTH 13 0
BBX 12 16 1 0
BITMAP
0600
0900
1980
0000
1F80
30C0
6060
C030
C030
C030
C030
C030
C030
6060
30C0
1F80
ENDCHAR

STARTCHAR Otilde
ENCODING 213
SWIDTH 777 0
DWIDTH 13 0
BBX 12 15 1 0
BITMAP
0E80
0B80
0000
1F80
30C0
6060
C030
C030
C030
C030
C030
C030
6060
30C0
1F80
ENDCHAR

STARTCHAR Odieresis
ENCODING 214
SWIDTH 777 0
DWIDTH 13 0
BBX 12 14 1 0
BITMAP
0900
0000
1F80
30C0
6060
C030
C030
C030
C030
C030
C030
6060
30C0
1F80
ENDCHAR

STARTCHAR multiply
ENCODING 215
SWIDTH 633 0
DWIDTH 11 0
BBX 10 10 0 0
BITMAP
8040
40C0
2100
1200
0C00
0C00
1200
2100
4080
80C0
ENDCHAR

STARTCHAR Oslash
ENCODING 216
SWIDTH 777 0
DWIDTH 13 0
BBX 12 12 1 0
BITMAP
1F90
30E0
6060
C0B0
C1B0
C330
C230
C430
C830
7060
30C0
7F80
ENDCHAR

STARTCHAR Ugrave
ENCODING 217
SWIDTH 693 0
DWIDTH 12 0
BBX 9 15 1 0
BITMAP
3000
0C00
0000
C180
C180
C180
C180
C180
C180
C180
C180
C180
C180
6300
3E00
ENDCHAR

STARTCHAR Uacute
ENCODING 218
SWIDTH 693 0
DWIDTH 12 0
BBX 9 15 1 0
BITMAP
0600
1800
0000
C180
C180
C180
C180
C180
C180
C180
C180
C180
C180
6300
3E00
ENDCHAR

STARTCHAR Ucircumflex
ENCODING 219
SWIDTH 693 0
DWIDTH 12 0
BBX 9 16 1 0
BITMAP
0C00
1200
3300
0000
C180
C180
C180
C180
C180
C180
C180
C180
C180
C180
6300
3E00
ENDCHAR

STARTCHAR Udieresis
ENCODING 220
SWIDTH 693 0
DWIDTH 12 0
BBX 9 14 1 0
BITMAP
1200
0000
C180
C180
C180
C180
C180
C180
C180
C180
C180
C180
6300
3E00
ENDCHAR

STARTCHAR Yacute
ENCODING 221
SWIDTH 623 0
DWIDTH 11 0
BBX 10 15 0 0
BITMAP
0600
1800
0000
C0C0
6080
6180
3100
3200
1E00
1C00
0C00
0C00
0C00
0C00
0C00
ENDCHAR

STARTCHAR Thorn
ENCODING 222
SWIDTH 553 0
DWIDTH 9 0
BBX 8 12 1 0
BITMAP
C0
C0
C0
FE
C7
C3
C3
C3
C6
FC
C0
C0
ENDCHAR

STARTCHAR germandbls
ENCODING 223
SWIDTH 598 0
DWIDTH 10 0
BBX 8 13 2 0
BITMAP
78
CC
CC
C8
D0
F0
F0
DC
CE
C7
C3
E3
FE
ENDCHAR

STARTCHAR agrave
ENCODING 224
SWIDTH 552 0
DWIDTH 9 0
BBX 8 12 1 0
BITMAP
60
18
00
7C
46
06
06
3E
E6
C6
C6
7B
ENDCHAR

STARTCHAR aacute
ENCODING 225
SWIDTH 552 0
DWIDTH 9 0
BBX 8 12 1 0
BITMAP
0C
30
00
7C
46
06
06
3E
E6
C6
C6
7B
ENDCHAR

STARTCHAR acircumflex
ENCODING 226
SWIDTH 552 0
DWIDTH 9 0
BBX 8 13 1 0
BITMAP
18
24
66
00
7C
46
06
06
3E
E6
C6
C6
7B
ENDCHAR

STARTCHAR atilde
ENCODING 227
SWIDTH 552 0
DWIDTH 9 0
BBX 8 12 1 0
BITMAP
74
5C
00
7C
46
06
06
3E
E6
C6
C6
7B
ENDCHAR

STARTCHAR adieresis
ENCODING 228
SWIDTH 552 0
DWIDTH 9 0
BBX 8 11 1 0
BITMAP
24
00
7C
46
06
06
3E
E6
C6
C6
7B
ENDCHAR

STARTCHAR aring
ENCODING 229
SWIDTH 552 0
DWIDTH 9 0
BBX 8 13 1 0
BITMAP
38
28
38
00
7C
46
06
06
3E
E6
C6
C6
7B
ENDCHAR

STARTCHAR ae
ENCODING 230
SWIDTH 851 0
DWIDTH 14 0
BBX 12 9 1 0
BITMAP
7DE0
4720
0630
0630
3FF0
E600
C600
C710
79F0
ENDCHAR

STARTCHAR ccedilla
ENCODING 231
SWIDTH 512 0
DWIDTH 9 0
BBX 7 12 1 -3
BITMAP
3E
60
C0
C0
C0
C0
C0
62
3E
20
18
18
ENDCHAR

STARTCHAR egrave
ENCODING 232
SWIDTH 557 0
DWIDTH 9 0
BBX 8 12 1 0
BITMAP
30
0C
00
3C
66
C3
C3
FF
C0
C0
61
1F
ENDCHAR

STARTCHAR eacute
ENCODING 233
SWIDTH 557 0
DWIDTH 9 0
BBX 8 12 1 0
BITMAP
06
18
00
3C
66
C3
C3
FF
C0
C0
61
1F
ENDCHAR

STARTCHAR ecircumflex
ENCODING 234
SWIDTH 557 0
DWIDTH 9 0
BBX 8 13 1 0
BITMAP
18
24
66
00
3C
66
C3
C3
FF
C0
C0
61
1F
ENDCHAR

STARTCHAR edieresis
ENCODING 235
SWIDTH 557 0
DWIDTH 9 0
BBX 8 11 1 0
BITMAP
24
00
3C
66
C3
C3
FF
C0
C0
61
1F
ENDCHAR

STARTCHAR igrave
ENCODING 236
SWIDTH 289 0
DWIDTH 5 0
BBX 4 12 0 0
BITMAP
C0
30
00
60
60
60
60
60
60
60
60
60
ENDCHAR

STARTCHAR iacute
ENCODING 237
SWIDTH 289 0
DWIDTH 5 0
BBX 4 12 0 0
BITMAP
30
C0
00
60
60
60
60
60
60
60
60
60
ENDCHAR

STARTCHAR icircumflex
ENCODING 238
SWIDTH 289 0
DWIDTH 5 0
BBX 6 13 -1 0
BITMAP
30
48
CC
00
30
30
30
30
30
30
30
30
30
ENDCHAR

STARTCHAR idieresis
ENCODING 239
SWIDTH 289 0
DWIDTH 5 0
BBX 4 11 0 0
BITMAP
90
00
60
60
60
60
60
60
60
60
60
ENDCHAR

STARTCHAR eth
ENCODING 240
SWIDTH 602 0
DWIDTH 10 0
BBX 9 12 1 0
BITMAP
FE00
1C00
6E00
3F00
6300
C180
C180
C180
C180
C180
6300
3E00
ENDCHAR

STARTCHAR ntilde
ENCODING 241
SWIDTH 620 0
DWIDTH 11 0
BBX 8 12 1 0
BITMAP
74
5C
00
DE
E3
C3
C3
C3
C3
C3
C3
C3
ENDCHAR

STARTCHAR ograve
ENCODING 242
SWIDTH 614 0
DWIDTH 10 0
BBX 9 12 1 0
BITMAP
3000
0C00
0000
3E00
6300
C180
C180
C180
C180
C180
6300
3E00
ENDCHAR

STARTCHAR oacute
ENCODING 243
SWIDTH 614 0
DWIDTH 10 0
BBX 9 12 1 0
BITMAP
0600
1800
0000
3E00
6300
C180
C180
C180
C180
C180
6300
3E00
ENDCHAR

STARTCHAR ocircumflex
ENCODING 244
SWIDTH 614 0
DWIDTH 10 0
BBX 9 13 1 0
BITMAP
1800
2400
6600
0000
3E00
6300
C180
C180
C180
C180
C180
6300
3E00
ENDCHAR

STARTCHAR otilde
ENCODING 245
SWIDTH 614 0
DWIDTH 10 0
BBX 9 12 1 0
BITMAP
3A00
2E00
0000
3E00
6300
C180
C180
C180
C180
C180
6300
3E00
ENDCHAR

STARTCHAR odieresis
ENCODING 246
SWIDTH 614 0
DWIDTH 10 0
BBX 9 11 1 0
BITMAP
2400
0000
3E00
6300
C180
C180
C180
C180
C180
6300
3E00
ENDCHAR

STARTCHAR divide
ENCODING 247
SWIDTH 633 0
DWIDTH 11 0
BBX 10 9 0 0
BITMAP
0C00
0C00
0000
0000
FFC0
0000
0000
0C00
0C00
ENDCHAR

STARTCHAR oslash
ENCODING 248
SWIDTH 614 0
DWIDTH 10 0
BBX 9 9 1 0
BITMAP
3F00
6300
C780
CD80
C980
D180
E180
6300
FE00
ENDCHAR

STARTCHAR ugrave
ENCODING 249
SWIDTH 620 0
DWIDTH 11 0
BBX 8 12 1 0
BITMAP
30
0C
00
C3
C3
C3
C3
C3
C3
C3
C7
7B
ENDCHAR

STARTCHAR uacute
ENCODING 250
SWIDTH 620 0
DWIDTH 11 0
BBX 8 12 1 0
BITMAP
0C
30
00
C3
C3
C3
C3
C3
C3
C3
C7
7B
ENDCHAR

STARTCHAR ucircumflex
ENCODING 251
SWIDTH 620 0
DWIDTH 11 0
BBX 8 13 1 0
BITMAP
18
24
66
00
C3
C3
C3
C3
C3
C3
C3
C7
7B
ENDCHAR

STARTCHAR udieresis
ENCODING 252
SWIDTH 620 0
DWIDTH 11 0
BBX 8 11 1 0
BITMAP
24
00
C3
C3
C3
C3
C3
C3
C3
C7
7B
ENDCHAR

STARTCHAR yacute
ENCODING 253
SWIDTH 522 0
DWIDTH 9 0
BBX 9 15 0 -3
BITMAP
0600
1800
0000
C180
C300
6300
6200
3600
3400
3C00
1800
1800
1800
1000
3000
ENDCHAR

STARTCHAR thorn
ENCODING 254
SWIDTH 630 0
DWIDTH 11 0
BBX 8 14 2 -3
BITMAP
C0
C0
DC
E6
C3
C3
C3
C3
C3
E6
DC
C0
C0
C0
ENDCHAR

STARTCHAR ydieresis
ENCODING 255
SWIDTH 522 0
DWIDTH 9 0
BBX 9 14 0 -3
BITMAP
2400
0000
C180
C300
6300
6200
3600
3400
3C00
1800
1800
1800
1000
3000
ENDCHAR
ENDFONT
